<mxfile host="app.diagrams.net" modified="2023-04-11T19:01:11.030Z" agent="Mozilla/5.0 (Windows NT 10.0; Win64; x64) AppleWebKit/537.36 (KHTML, like Gecko) Chrome/112.0.0.0 Safari/537.36" etag="NSafZ6zvPjjJh3p8ar0Z" version="21.1.6" type="github">
  <diagram id="C5RBs43oDa-KdzZeNtuy" name="Page-1">
    <mxGraphModel dx="1035" dy="569" grid="1" gridSize="10" guides="1" tooltips="1" connect="1" arrows="1" fold="1" page="1" pageScale="1" pageWidth="827" pageHeight="1169" math="0" shadow="0">
      <root>
        <mxCell id="WIyWlLk6GJQsqaUBKTNV-0" />
        <mxCell id="WIyWlLk6GJQsqaUBKTNV-1" parent="WIyWlLk6GJQsqaUBKTNV-0" />
        <mxCell id="E2zn4Pb3ujCgZFVEuSo9-5" style="edgeStyle=orthogonalEdgeStyle;rounded=0;orthogonalLoop=1;jettySize=auto;html=1;exitX=0.5;exitY=1;exitDx=0;exitDy=0;exitPerimeter=0;entryX=0.5;entryY=0;entryDx=0;entryDy=0;" edge="1" parent="WIyWlLk6GJQsqaUBKTNV-1" target="E2zn4Pb3ujCgZFVEuSo9-4">
          <mxGeometry relative="1" as="geometry">
            <mxPoint x="270" y="120.00000000000011" as="sourcePoint" />
          </mxGeometry>
        </mxCell>
        <mxCell id="E2zn4Pb3ujCgZFVEuSo9-0" value="Начало" style="strokeWidth=2;html=1;shape=mxgraph.flowchart.start_2;whiteSpace=wrap;" vertex="1" parent="WIyWlLk6GJQsqaUBKTNV-1">
          <mxGeometry x="220" y="20" width="100" height="100" as="geometry" />
        </mxCell>
        <mxCell id="E2zn4Pb3ujCgZFVEuSo9-7" style="edgeStyle=orthogonalEdgeStyle;rounded=0;orthogonalLoop=1;jettySize=auto;html=1;exitX=0.5;exitY=1;exitDx=0;exitDy=0;" edge="1" parent="WIyWlLk6GJQsqaUBKTNV-1" source="E2zn4Pb3ujCgZFVEuSo9-4" target="E2zn4Pb3ujCgZFVEuSo9-6">
          <mxGeometry relative="1" as="geometry" />
        </mxCell>
        <mxCell id="E2zn4Pb3ujCgZFVEuSo9-4" value="Ввод (List)" style="shape=parallelogram;html=1;strokeWidth=2;perimeter=parallelogramPerimeter;whiteSpace=wrap;rounded=1;arcSize=12;size=0.23;" vertex="1" parent="WIyWlLk6GJQsqaUBKTNV-1">
          <mxGeometry x="220" y="150" width="100" height="60" as="geometry" />
        </mxCell>
        <mxCell id="E2zn4Pb3ujCgZFVEuSo9-10" style="edgeStyle=orthogonalEdgeStyle;rounded=0;orthogonalLoop=1;jettySize=auto;html=1;exitX=0.5;exitY=1;exitDx=0;exitDy=0;" edge="1" parent="WIyWlLk6GJQsqaUBKTNV-1" source="E2zn4Pb3ujCgZFVEuSo9-6">
          <mxGeometry relative="1" as="geometry">
            <mxPoint x="269.78947368421063" y="350" as="targetPoint" />
          </mxGeometry>
        </mxCell>
        <mxCell id="E2zn4Pb3ujCgZFVEuSo9-6" value="height = 0; width = 0&lt;br&gt;i = 0; j = len( input ) - 1&amp;nbsp;&lt;br&gt;value = 0&amp;nbsp;" style="rounded=1;whiteSpace=wrap;html=1;absoluteArcSize=1;arcSize=14;strokeWidth=2;" vertex="1" parent="WIyWlLk6GJQsqaUBKTNV-1">
          <mxGeometry x="170" y="250" width="200" height="70" as="geometry" />
        </mxCell>
        <mxCell id="E2zn4Pb3ujCgZFVEuSo9-8" style="edgeStyle=orthogonalEdgeStyle;rounded=0;orthogonalLoop=1;jettySize=auto;html=1;exitX=0.5;exitY=1;exitDx=0;exitDy=0;" edge="1" parent="WIyWlLk6GJQsqaUBKTNV-1" source="E2zn4Pb3ujCgZFVEuSo9-6" target="E2zn4Pb3ujCgZFVEuSo9-6">
          <mxGeometry relative="1" as="geometry" />
        </mxCell>
        <mxCell id="E2zn4Pb3ujCgZFVEuSo9-24" style="edgeStyle=orthogonalEdgeStyle;rounded=0;orthogonalLoop=1;jettySize=auto;html=1;exitX=0.5;exitY=1;exitDx=0;exitDy=0;exitPerimeter=0;entryX=0.5;entryY=0;entryDx=0;entryDy=0;entryPerimeter=0;" edge="1" parent="WIyWlLk6GJQsqaUBKTNV-1" source="E2zn4Pb3ujCgZFVEuSo9-16" target="E2zn4Pb3ujCgZFVEuSo9-21">
          <mxGeometry relative="1" as="geometry" />
        </mxCell>
        <mxCell id="E2zn4Pb3ujCgZFVEuSo9-67" style="edgeStyle=orthogonalEdgeStyle;rounded=0;orthogonalLoop=1;jettySize=auto;html=1;exitX=1;exitY=0.5;exitDx=0;exitDy=0;exitPerimeter=0;entryX=1;entryY=0.2;entryDx=0;entryDy=0;entryPerimeter=0;" edge="1" parent="WIyWlLk6GJQsqaUBKTNV-1" source="E2zn4Pb3ujCgZFVEuSo9-16" target="E2zn4Pb3ujCgZFVEuSo9-65">
          <mxGeometry relative="1" as="geometry">
            <Array as="points">
              <mxPoint x="580" y="375" />
              <mxPoint x="580" y="940" />
            </Array>
          </mxGeometry>
        </mxCell>
        <mxCell id="E2zn4Pb3ujCgZFVEuSo9-16" value="WHILE&lt;br&gt;i &amp;lt; len( input )" style="strokeWidth=2;html=1;shape=mxgraph.flowchart.loop_limit;whiteSpace=wrap;" vertex="1" parent="WIyWlLk6GJQsqaUBKTNV-1">
          <mxGeometry x="195" y="350" width="145" height="50" as="geometry" />
        </mxCell>
        <mxCell id="E2zn4Pb3ujCgZFVEuSo9-26" style="edgeStyle=orthogonalEdgeStyle;rounded=0;orthogonalLoop=1;jettySize=auto;html=1;exitX=0.5;exitY=1;exitDx=0;exitDy=0;exitPerimeter=0;entryX=0.5;entryY=0;entryDx=0;entryDy=0;entryPerimeter=0;" edge="1" parent="WIyWlLk6GJQsqaUBKTNV-1" source="E2zn4Pb3ujCgZFVEuSo9-21" target="E2zn4Pb3ujCgZFVEuSo9-25">
          <mxGeometry relative="1" as="geometry" />
        </mxCell>
        <mxCell id="E2zn4Pb3ujCgZFVEuSo9-56" style="edgeStyle=orthogonalEdgeStyle;rounded=0;orthogonalLoop=1;jettySize=auto;html=1;exitX=0;exitY=0.5;exitDx=0;exitDy=0;exitPerimeter=0;entryX=0;entryY=0.5;entryDx=0;entryDy=0;entryPerimeter=0;" edge="1" parent="WIyWlLk6GJQsqaUBKTNV-1" source="E2zn4Pb3ujCgZFVEuSo9-21" target="E2zn4Pb3ujCgZFVEuSo9-21">
          <mxGeometry relative="1" as="geometry">
            <mxPoint x="50" y="454.6521739130435" as="targetPoint" />
          </mxGeometry>
        </mxCell>
        <mxCell id="E2zn4Pb3ujCgZFVEuSo9-62" style="edgeStyle=orthogonalEdgeStyle;rounded=0;orthogonalLoop=1;jettySize=auto;html=1;exitX=1;exitY=0.5;exitDx=0;exitDy=0;exitPerimeter=0;entryX=1;entryY=0.5;entryDx=0;entryDy=0;" edge="1" parent="WIyWlLk6GJQsqaUBKTNV-1" source="E2zn4Pb3ujCgZFVEuSo9-21" target="E2zn4Pb3ujCgZFVEuSo9-61">
          <mxGeometry relative="1" as="geometry">
            <Array as="points">
              <mxPoint x="560" y="455" />
              <mxPoint x="560" y="875" />
            </Array>
          </mxGeometry>
        </mxCell>
        <mxCell id="E2zn4Pb3ujCgZFVEuSo9-21" value="WHILE&lt;br&gt;j &amp;gt; i" style="strokeWidth=2;html=1;shape=mxgraph.flowchart.loop_limit;whiteSpace=wrap;" vertex="1" parent="WIyWlLk6GJQsqaUBKTNV-1">
          <mxGeometry x="195" y="430" width="140" height="50" as="geometry" />
        </mxCell>
        <mxCell id="E2zn4Pb3ujCgZFVEuSo9-27" style="edgeStyle=orthogonalEdgeStyle;rounded=0;orthogonalLoop=1;jettySize=auto;html=1;exitX=1;exitY=0.5;exitDx=0;exitDy=0;exitPerimeter=0;" edge="1" parent="WIyWlLk6GJQsqaUBKTNV-1" source="E2zn4Pb3ujCgZFVEuSo9-25">
          <mxGeometry relative="1" as="geometry">
            <mxPoint x="400" y="535" as="targetPoint" />
            <Array as="points">
              <mxPoint x="370" y="535" />
              <mxPoint x="370" y="535" />
            </Array>
          </mxGeometry>
        </mxCell>
        <mxCell id="E2zn4Pb3ujCgZFVEuSo9-34" style="edgeStyle=orthogonalEdgeStyle;rounded=0;orthogonalLoop=1;jettySize=auto;html=1;entryX=1;entryY=0.5;entryDx=0;entryDy=0;" edge="1" parent="WIyWlLk6GJQsqaUBKTNV-1" source="E2zn4Pb3ujCgZFVEuSo9-25" target="E2zn4Pb3ujCgZFVEuSo9-32">
          <mxGeometry relative="1" as="geometry" />
        </mxCell>
        <mxCell id="E2zn4Pb3ujCgZFVEuSo9-42" value="" style="edgeStyle=orthogonalEdgeStyle;rounded=0;orthogonalLoop=1;jettySize=auto;html=1;" edge="1" parent="WIyWlLk6GJQsqaUBKTNV-1" source="E2zn4Pb3ujCgZFVEuSo9-25" target="E2zn4Pb3ujCgZFVEuSo9-31">
          <mxGeometry relative="1" as="geometry" />
        </mxCell>
        <mxCell id="E2zn4Pb3ujCgZFVEuSo9-25" value="input[ i ] &amp;lt; input [ j ]" style="strokeWidth=2;html=1;shape=mxgraph.flowchart.decision;whiteSpace=wrap;" vertex="1" parent="WIyWlLk6GJQsqaUBKTNV-1">
          <mxGeometry x="188.75" y="500" width="151.25" height="70" as="geometry" />
        </mxCell>
        <mxCell id="E2zn4Pb3ujCgZFVEuSo9-28" value="YES" style="text;html=1;align=center;verticalAlign=middle;resizable=0;points=[];autosize=1;strokeColor=none;fillColor=none;" vertex="1" parent="WIyWlLk6GJQsqaUBKTNV-1">
          <mxGeometry x="320" y="500" width="50" height="30" as="geometry" />
        </mxCell>
        <mxCell id="E2zn4Pb3ujCgZFVEuSo9-30" value="NO" style="text;html=1;align=center;verticalAlign=middle;resizable=0;points=[];autosize=1;strokeColor=none;fillColor=none;" vertex="1" parent="WIyWlLk6GJQsqaUBKTNV-1">
          <mxGeometry x="160" y="500" width="40" height="30" as="geometry" />
        </mxCell>
        <mxCell id="E2zn4Pb3ujCgZFVEuSo9-36" style="edgeStyle=orthogonalEdgeStyle;rounded=0;orthogonalLoop=1;jettySize=auto;html=1;exitX=0.5;exitY=1;exitDx=0;exitDy=0;" edge="1" parent="WIyWlLk6GJQsqaUBKTNV-1" source="E2zn4Pb3ujCgZFVEuSo9-31">
          <mxGeometry relative="1" as="geometry">
            <mxPoint x="270" y="610" as="targetPoint" />
            <Array as="points">
              <mxPoint x="454" y="600" />
              <mxPoint x="270" y="600" />
            </Array>
          </mxGeometry>
        </mxCell>
        <mxCell id="E2zn4Pb3ujCgZFVEuSo9-31" value="height = input [ i ]" style="rounded=1;whiteSpace=wrap;html=1;absoluteArcSize=1;arcSize=14;strokeWidth=2;" vertex="1" parent="WIyWlLk6GJQsqaUBKTNV-1">
          <mxGeometry x="370" y="508" width="100" height="54" as="geometry" />
        </mxCell>
        <mxCell id="E2zn4Pb3ujCgZFVEuSo9-33" value="" style="edgeStyle=orthogonalEdgeStyle;rounded=0;orthogonalLoop=1;jettySize=auto;html=1;" edge="1" parent="WIyWlLk6GJQsqaUBKTNV-1" source="E2zn4Pb3ujCgZFVEuSo9-32">
          <mxGeometry relative="1" as="geometry">
            <mxPoint x="270" y="620" as="targetPoint" />
            <Array as="points">
              <mxPoint x="80" y="600" />
              <mxPoint x="270" y="600" />
            </Array>
          </mxGeometry>
        </mxCell>
        <mxCell id="E2zn4Pb3ujCgZFVEuSo9-32" value="height = input [ j ]" style="rounded=1;whiteSpace=wrap;html=1;absoluteArcSize=1;arcSize=14;strokeWidth=2;" vertex="1" parent="WIyWlLk6GJQsqaUBKTNV-1">
          <mxGeometry x="60" y="510" width="100" height="50" as="geometry" />
        </mxCell>
        <mxCell id="E2zn4Pb3ujCgZFVEuSo9-47" style="edgeStyle=orthogonalEdgeStyle;rounded=0;orthogonalLoop=1;jettySize=auto;html=1;exitX=0.5;exitY=1;exitDx=0;exitDy=0;entryX=0.5;entryY=0;entryDx=0;entryDy=0;entryPerimeter=0;" edge="1" parent="WIyWlLk6GJQsqaUBKTNV-1" source="E2zn4Pb3ujCgZFVEuSo9-43" target="E2zn4Pb3ujCgZFVEuSo9-46">
          <mxGeometry relative="1" as="geometry" />
        </mxCell>
        <mxCell id="E2zn4Pb3ujCgZFVEuSo9-43" value="width = height[ j ] - (height [ i ] + 1)" style="rounded=1;whiteSpace=wrap;html=1;absoluteArcSize=1;arcSize=14;strokeWidth=2;" vertex="1" parent="WIyWlLk6GJQsqaUBKTNV-1">
          <mxGeometry x="170" y="620" width="200" height="40" as="geometry" />
        </mxCell>
        <mxCell id="E2zn4Pb3ujCgZFVEuSo9-59" style="edgeStyle=orthogonalEdgeStyle;rounded=0;orthogonalLoop=1;jettySize=auto;html=1;exitX=0.5;exitY=1;exitDx=0;exitDy=0;entryX=0;entryY=0.5;entryDx=0;entryDy=0;entryPerimeter=0;" edge="1" parent="WIyWlLk6GJQsqaUBKTNV-1" source="E2zn4Pb3ujCgZFVEuSo9-44" target="E2zn4Pb3ujCgZFVEuSo9-21">
          <mxGeometry relative="1" as="geometry">
            <Array as="points">
              <mxPoint x="270" y="830" />
              <mxPoint x="50" y="830" />
              <mxPoint x="50" y="455" />
            </Array>
          </mxGeometry>
        </mxCell>
        <mxCell id="E2zn4Pb3ujCgZFVEuSo9-44" value="j -= 1" style="rounded=1;whiteSpace=wrap;html=1;absoluteArcSize=1;arcSize=14;strokeWidth=2;" vertex="1" parent="WIyWlLk6GJQsqaUBKTNV-1">
          <mxGeometry x="210" y="780" width="120" height="30" as="geometry" />
        </mxCell>
        <mxCell id="E2zn4Pb3ujCgZFVEuSo9-48" style="edgeStyle=orthogonalEdgeStyle;rounded=0;orthogonalLoop=1;jettySize=auto;html=1;exitX=1;exitY=0.5;exitDx=0;exitDy=0;exitPerimeter=0;" edge="1" parent="WIyWlLk6GJQsqaUBKTNV-1" source="E2zn4Pb3ujCgZFVEuSo9-46">
          <mxGeometry relative="1" as="geometry">
            <mxPoint x="400" y="715.2105263157896" as="targetPoint" />
          </mxGeometry>
        </mxCell>
        <mxCell id="E2zn4Pb3ujCgZFVEuSo9-52" style="edgeStyle=orthogonalEdgeStyle;rounded=0;orthogonalLoop=1;jettySize=auto;html=1;exitX=0.5;exitY=1;exitDx=0;exitDy=0;exitPerimeter=0;entryX=0.499;entryY=1;entryDx=0;entryDy=0;entryPerimeter=0;" edge="1" parent="WIyWlLk6GJQsqaUBKTNV-1" source="E2zn4Pb3ujCgZFVEuSo9-46" target="E2zn4Pb3ujCgZFVEuSo9-46">
          <mxGeometry relative="1" as="geometry">
            <mxPoint x="269.78947368421063" y="760" as="targetPoint" />
            <Array as="points" />
          </mxGeometry>
        </mxCell>
        <mxCell id="E2zn4Pb3ujCgZFVEuSo9-53" style="edgeStyle=orthogonalEdgeStyle;rounded=0;orthogonalLoop=1;jettySize=auto;html=1;exitX=0.5;exitY=1;exitDx=0;exitDy=0;exitPerimeter=0;" edge="1" parent="WIyWlLk6GJQsqaUBKTNV-1" source="E2zn4Pb3ujCgZFVEuSo9-46">
          <mxGeometry relative="1" as="geometry">
            <mxPoint x="269.78947368421063" y="780" as="targetPoint" />
          </mxGeometry>
        </mxCell>
        <mxCell id="E2zn4Pb3ujCgZFVEuSo9-46" value="value &amp;lt; width * height" style="strokeWidth=2;html=1;shape=mxgraph.flowchart.decision;whiteSpace=wrap;" vertex="1" parent="WIyWlLk6GJQsqaUBKTNV-1">
          <mxGeometry x="190" y="680" width="160" height="70" as="geometry" />
        </mxCell>
        <mxCell id="E2zn4Pb3ujCgZFVEuSo9-49" value="YES" style="text;html=1;align=center;verticalAlign=middle;resizable=0;points=[];autosize=1;strokeColor=none;fillColor=none;" vertex="1" parent="WIyWlLk6GJQsqaUBKTNV-1">
          <mxGeometry x="345" y="675" width="50" height="30" as="geometry" />
        </mxCell>
        <mxCell id="E2zn4Pb3ujCgZFVEuSo9-51" style="edgeStyle=orthogonalEdgeStyle;rounded=0;orthogonalLoop=1;jettySize=auto;html=1;exitX=0.5;exitY=1;exitDx=0;exitDy=0;entryX=0.5;entryY=0;entryDx=0;entryDy=0;" edge="1" parent="WIyWlLk6GJQsqaUBKTNV-1" source="E2zn4Pb3ujCgZFVEuSo9-50" target="E2zn4Pb3ujCgZFVEuSo9-44">
          <mxGeometry relative="1" as="geometry">
            <mxPoint x="360" y="760" as="targetPoint" />
            <Array as="points">
              <mxPoint x="472" y="760" />
              <mxPoint x="270" y="760" />
            </Array>
          </mxGeometry>
        </mxCell>
        <mxCell id="E2zn4Pb3ujCgZFVEuSo9-50" value="value&amp;nbsp; = width * height" style="rounded=1;whiteSpace=wrap;html=1;absoluteArcSize=1;arcSize=14;strokeWidth=2;" vertex="1" parent="WIyWlLk6GJQsqaUBKTNV-1">
          <mxGeometry x="404" y="690" width="136" height="50" as="geometry" />
        </mxCell>
        <mxCell id="E2zn4Pb3ujCgZFVEuSo9-54" value="NO" style="text;html=1;align=center;verticalAlign=middle;resizable=0;points=[];autosize=1;strokeColor=none;fillColor=none;" vertex="1" parent="WIyWlLk6GJQsqaUBKTNV-1">
          <mxGeometry x="280" y="735" width="40" height="30" as="geometry" />
        </mxCell>
        <mxCell id="E2zn4Pb3ujCgZFVEuSo9-63" style="edgeStyle=orthogonalEdgeStyle;rounded=0;orthogonalLoop=1;jettySize=auto;html=1;entryX=0.006;entryY=0.632;entryDx=0;entryDy=0;entryPerimeter=0;" edge="1" parent="WIyWlLk6GJQsqaUBKTNV-1" source="E2zn4Pb3ujCgZFVEuSo9-61" target="E2zn4Pb3ujCgZFVEuSo9-16">
          <mxGeometry relative="1" as="geometry">
            <Array as="points">
              <mxPoint x="30" y="875" />
              <mxPoint x="30" y="382" />
            </Array>
          </mxGeometry>
        </mxCell>
        <mxCell id="E2zn4Pb3ujCgZFVEuSo9-61" value="i += 1" style="rounded=1;whiteSpace=wrap;html=1;absoluteArcSize=1;arcSize=14;strokeWidth=2;" vertex="1" parent="WIyWlLk6GJQsqaUBKTNV-1">
          <mxGeometry x="210" y="860" width="120" height="30" as="geometry" />
        </mxCell>
        <mxCell id="E2zn4Pb3ujCgZFVEuSo9-64" value="список чисел длиною N и диапазоном значения N" style="strokeWidth=2;html=1;shape=mxgraph.flowchart.annotation_2;align=left;labelPosition=right;pointerEvents=1;" vertex="1" parent="WIyWlLk6GJQsqaUBKTNV-1">
          <mxGeometry x="310" y="163.75" width="260" height="32.5" as="geometry" />
        </mxCell>
        <mxCell id="E2zn4Pb3ujCgZFVEuSo9-68" style="edgeStyle=orthogonalEdgeStyle;rounded=0;orthogonalLoop=1;jettySize=auto;html=1;exitX=0.5;exitY=1;exitDx=0;exitDy=0;" edge="1" parent="WIyWlLk6GJQsqaUBKTNV-1" source="E2zn4Pb3ujCgZFVEuSo9-65">
          <mxGeometry relative="1" as="geometry">
            <mxPoint x="269.78947368421063" y="1010" as="targetPoint" />
          </mxGeometry>
        </mxCell>
        <mxCell id="E2zn4Pb3ujCgZFVEuSo9-65" value="Вывод value" style="shape=parallelogram;html=1;strokeWidth=2;perimeter=parallelogramPerimeter;whiteSpace=wrap;rounded=1;arcSize=12;size=0.23;" vertex="1" parent="WIyWlLk6GJQsqaUBKTNV-1">
          <mxGeometry x="210" y="930" width="120" height="50" as="geometry" />
        </mxCell>
        <mxCell id="E2zn4Pb3ujCgZFVEuSo9-66" style="edgeStyle=orthogonalEdgeStyle;rounded=0;orthogonalLoop=1;jettySize=auto;html=1;exitX=0.5;exitY=1;exitDx=0;exitDy=0;" edge="1" parent="WIyWlLk6GJQsqaUBKTNV-1" source="E2zn4Pb3ujCgZFVEuSo9-65" target="E2zn4Pb3ujCgZFVEuSo9-65">
          <mxGeometry relative="1" as="geometry" />
        </mxCell>
        <mxCell id="E2zn4Pb3ujCgZFVEuSo9-69" value="Конец" style="strokeWidth=2;html=1;shape=mxgraph.flowchart.start_2;whiteSpace=wrap;" vertex="1" parent="WIyWlLk6GJQsqaUBKTNV-1">
          <mxGeometry x="220" y="1010" width="100" height="100" as="geometry" />
        </mxCell>
      </root>
    </mxGraphModel>
  </diagram>
</mxfile>
